<mxfile host="Electron" modified="2023-06-20T11:21:08.581Z" agent="Mozilla/5.0 (Windows NT 10.0; Win64; x64) AppleWebKit/537.36 (KHTML, like Gecko) draw.io/21.5.0 Chrome/112.0.5615.204 Electron/24.5.1 Safari/537.36" etag="2Fbn--uD4fRnd-M4YU_F" version="21.5.0" type="device">
  <diagram name="Page-1" id="eDkCeHle7_VE5sGdCCSo">
    <mxGraphModel dx="864" dy="516" grid="1" gridSize="10" guides="1" tooltips="1" connect="1" arrows="1" fold="1" page="1" pageScale="1" pageWidth="850" pageHeight="1100" math="0" shadow="0">
      <root>
        <mxCell id="0" />
        <mxCell id="1" parent="0" />
        <mxCell id="k0mcQcMzuhZOdmnRrV_q-1" value="Ward" style="rounded=0;whiteSpace=wrap;html=1;" vertex="1" parent="1">
          <mxGeometry x="70" y="80" width="120" height="40" as="geometry" />
        </mxCell>
        <mxCell id="k0mcQcMzuhZOdmnRrV_q-2" value="" style="endArrow=none;html=1;rounded=0;" edge="1" parent="1">
          <mxGeometry width="50" height="50" relative="1" as="geometry">
            <mxPoint x="90" y="80" as="sourcePoint" />
            <mxPoint x="70" y="40" as="targetPoint" />
          </mxGeometry>
        </mxCell>
        <mxCell id="k0mcQcMzuhZOdmnRrV_q-4" value="" style="endArrow=none;html=1;rounded=0;" edge="1" parent="1" target="k0mcQcMzuhZOdmnRrV_q-5">
          <mxGeometry relative="1" as="geometry">
            <mxPoint x="150" y="80" as="sourcePoint" />
            <mxPoint x="190" y="40" as="targetPoint" />
          </mxGeometry>
        </mxCell>
        <mxCell id="k0mcQcMzuhZOdmnRrV_q-5" value="Name" style="ellipse;whiteSpace=wrap;html=1;align=center;" vertex="1" parent="1">
          <mxGeometry x="150" width="100" height="40" as="geometry" />
        </mxCell>
        <mxCell id="k0mcQcMzuhZOdmnRrV_q-6" value="" style="endArrow=none;html=1;rounded=0;entryX=0.175;entryY=1.025;entryDx=0;entryDy=0;entryPerimeter=0;" edge="1" parent="1" target="k0mcQcMzuhZOdmnRrV_q-1">
          <mxGeometry relative="1" as="geometry">
            <mxPoint x="70" y="160" as="sourcePoint" />
            <mxPoint x="100" y="120" as="targetPoint" />
          </mxGeometry>
        </mxCell>
        <mxCell id="k0mcQcMzuhZOdmnRrV_q-7" value="Name of Patients" style="ellipse;whiteSpace=wrap;html=1;align=center;" vertex="1" parent="1">
          <mxGeometry x="10" y="160" width="100" height="40" as="geometry" />
        </mxCell>
        <mxCell id="k0mcQcMzuhZOdmnRrV_q-8" value="1" style="endArrow=none;html=1;rounded=0;" edge="1" parent="1" target="k0mcQcMzuhZOdmnRrV_q-9">
          <mxGeometry relative="1" as="geometry">
            <mxPoint x="129.5" y="120" as="sourcePoint" />
            <mxPoint x="130" y="240" as="targetPoint" />
          </mxGeometry>
        </mxCell>
        <mxCell id="k0mcQcMzuhZOdmnRrV_q-9" value="Has" style="shape=rhombus;perimeter=rhombusPerimeter;whiteSpace=wrap;html=1;align=center;" vertex="1" parent="1">
          <mxGeometry x="70" y="210" width="120" height="60" as="geometry" />
        </mxCell>
        <mxCell id="k0mcQcMzuhZOdmnRrV_q-10" value="" style="endArrow=none;html=1;rounded=0;" edge="1" parent="1">
          <mxGeometry relative="1" as="geometry">
            <mxPoint x="129.5" y="270" as="sourcePoint" />
            <mxPoint x="130" y="360" as="targetPoint" />
          </mxGeometry>
        </mxCell>
        <mxCell id="k0mcQcMzuhZOdmnRrV_q-11" value="Doctor" style="rounded=0;whiteSpace=wrap;html=1;" vertex="1" parent="1">
          <mxGeometry x="70" y="360" width="120" height="40" as="geometry" />
        </mxCell>
        <mxCell id="k0mcQcMzuhZOdmnRrV_q-12" value="" style="endArrow=none;html=1;rounded=0;" edge="1" parent="1">
          <mxGeometry width="50" height="50" relative="1" as="geometry">
            <mxPoint x="100" y="360" as="sourcePoint" />
            <mxPoint x="80" y="320" as="targetPoint" />
          </mxGeometry>
        </mxCell>
        <mxCell id="k0mcQcMzuhZOdmnRrV_q-14" value="" style="endArrow=none;html=1;rounded=0;" edge="1" parent="1" target="k0mcQcMzuhZOdmnRrV_q-15">
          <mxGeometry relative="1" as="geometry">
            <mxPoint x="160" y="360" as="sourcePoint" />
            <mxPoint x="200" y="320" as="targetPoint" />
          </mxGeometry>
        </mxCell>
        <mxCell id="k0mcQcMzuhZOdmnRrV_q-15" value="Name" style="ellipse;whiteSpace=wrap;html=1;align=center;" vertex="1" parent="1">
          <mxGeometry x="160" y="280" width="100" height="40" as="geometry" />
        </mxCell>
        <mxCell id="k0mcQcMzuhZOdmnRrV_q-16" value="" style="endArrow=none;html=1;rounded=0;entryX=0.175;entryY=1.025;entryDx=0;entryDy=0;entryPerimeter=0;" edge="1" parent="1">
          <mxGeometry relative="1" as="geometry">
            <mxPoint x="80" y="440" as="sourcePoint" />
            <mxPoint x="101" y="401" as="targetPoint" />
          </mxGeometry>
        </mxCell>
        <mxCell id="k0mcQcMzuhZOdmnRrV_q-17" value="Name of Patients" style="ellipse;whiteSpace=wrap;html=1;align=center;" vertex="1" parent="1">
          <mxGeometry x="20" y="440" width="100" height="40" as="geometry" />
        </mxCell>
        <mxCell id="k0mcQcMzuhZOdmnRrV_q-18" value="" style="endArrow=none;html=1;rounded=0;" edge="1" parent="1">
          <mxGeometry relative="1" as="geometry">
            <mxPoint x="129.5" y="270" as="sourcePoint" />
            <mxPoint x="130" y="360" as="targetPoint" />
          </mxGeometry>
        </mxCell>
        <mxCell id="k0mcQcMzuhZOdmnRrV_q-19" value="Doctor" style="rounded=0;whiteSpace=wrap;html=1;" vertex="1" parent="1">
          <mxGeometry x="70" y="360" width="120" height="40" as="geometry" />
        </mxCell>
        <mxCell id="k0mcQcMzuhZOdmnRrV_q-20" value="" style="endArrow=none;html=1;rounded=0;" edge="1" parent="1">
          <mxGeometry width="50" height="50" relative="1" as="geometry">
            <mxPoint x="100" y="360" as="sourcePoint" />
            <mxPoint x="80" y="320" as="targetPoint" />
          </mxGeometry>
        </mxCell>
        <mxCell id="k0mcQcMzuhZOdmnRrV_q-22" value="" style="endArrow=none;html=1;rounded=0;" edge="1" target="k0mcQcMzuhZOdmnRrV_q-23" parent="1">
          <mxGeometry relative="1" as="geometry">
            <mxPoint x="160" y="360" as="sourcePoint" />
            <mxPoint x="200" y="320" as="targetPoint" />
          </mxGeometry>
        </mxCell>
        <mxCell id="k0mcQcMzuhZOdmnRrV_q-23" value="Name" style="ellipse;whiteSpace=wrap;html=1;align=center;" vertex="1" parent="1">
          <mxGeometry x="160" y="280" width="100" height="40" as="geometry" />
        </mxCell>
        <mxCell id="k0mcQcMzuhZOdmnRrV_q-24" value="" style="endArrow=none;html=1;rounded=0;entryX=0.175;entryY=1.025;entryDx=0;entryDy=0;entryPerimeter=0;" edge="1" parent="1">
          <mxGeometry relative="1" as="geometry">
            <mxPoint x="80" y="440" as="sourcePoint" />
            <mxPoint x="101" y="401" as="targetPoint" />
          </mxGeometry>
        </mxCell>
        <mxCell id="k0mcQcMzuhZOdmnRrV_q-25" value="Address" style="ellipse;whiteSpace=wrap;html=1;align=center;" vertex="1" parent="1">
          <mxGeometry x="20" y="440" width="100" height="40" as="geometry" />
        </mxCell>
        <mxCell id="k0mcQcMzuhZOdmnRrV_q-33" value="Ward Number" style="ellipse;whiteSpace=wrap;html=1;align=center;fontStyle=4;" vertex="1" parent="1">
          <mxGeometry x="20" width="100" height="40" as="geometry" />
        </mxCell>
        <mxCell id="k0mcQcMzuhZOdmnRrV_q-34" value="ID" style="ellipse;whiteSpace=wrap;html=1;align=center;fontStyle=4;" vertex="1" parent="1">
          <mxGeometry x="20" y="280" width="100" height="40" as="geometry" />
        </mxCell>
        <mxCell id="k0mcQcMzuhZOdmnRrV_q-35" value="" style="endArrow=none;html=1;rounded=0;entryX=0.75;entryY=1;entryDx=0;entryDy=0;exitX=0.5;exitY=0;exitDx=0;exitDy=0;" edge="1" parent="1" source="k0mcQcMzuhZOdmnRrV_q-36" target="k0mcQcMzuhZOdmnRrV_q-19">
          <mxGeometry relative="1" as="geometry">
            <mxPoint x="190" y="450" as="sourcePoint" />
            <mxPoint x="211" y="401" as="targetPoint" />
          </mxGeometry>
        </mxCell>
        <mxCell id="k0mcQcMzuhZOdmnRrV_q-36" value="Telephone Number" style="ellipse;whiteSpace=wrap;html=1;align=center;" vertex="1" parent="1">
          <mxGeometry x="130" y="440" width="100" height="40" as="geometry" />
        </mxCell>
        <mxCell id="k0mcQcMzuhZOdmnRrV_q-37" value="1" style="endArrow=none;html=1;rounded=0;" edge="1" parent="1">
          <mxGeometry relative="1" as="geometry">
            <mxPoint x="190" y="99.5" as="sourcePoint" />
            <mxPoint x="270" y="100" as="targetPoint" />
          </mxGeometry>
        </mxCell>
        <mxCell id="k0mcQcMzuhZOdmnRrV_q-38" value="Host" style="shape=rhombus;perimeter=rhombusPerimeter;whiteSpace=wrap;html=1;align=center;" vertex="1" parent="1">
          <mxGeometry x="270" y="70" width="120" height="60" as="geometry" />
        </mxCell>
        <mxCell id="k0mcQcMzuhZOdmnRrV_q-39" value="" style="endArrow=none;html=1;rounded=0;" edge="1" parent="1">
          <mxGeometry relative="1" as="geometry">
            <mxPoint x="390" y="99.5" as="sourcePoint" />
            <mxPoint x="470" y="100" as="targetPoint" />
          </mxGeometry>
        </mxCell>
        <mxCell id="k0mcQcMzuhZOdmnRrV_q-134" value="m" style="edgeLabel;html=1;align=center;verticalAlign=middle;resizable=0;points=[];" vertex="1" connectable="0" parent="k0mcQcMzuhZOdmnRrV_q-39">
          <mxGeometry x="0.2752" y="-1" relative="1" as="geometry">
            <mxPoint as="offset" />
          </mxGeometry>
        </mxCell>
        <mxCell id="k0mcQcMzuhZOdmnRrV_q-43" value="" style="endArrow=none;html=1;rounded=0;" edge="1" parent="1">
          <mxGeometry relative="1" as="geometry">
            <mxPoint x="129.5" y="270" as="sourcePoint" />
            <mxPoint x="130" y="360" as="targetPoint" />
          </mxGeometry>
        </mxCell>
        <mxCell id="k0mcQcMzuhZOdmnRrV_q-44" value="Doctor" style="rounded=0;whiteSpace=wrap;html=1;" vertex="1" parent="1">
          <mxGeometry x="70" y="360" width="120" height="40" as="geometry" />
        </mxCell>
        <mxCell id="k0mcQcMzuhZOdmnRrV_q-45" value="" style="endArrow=none;html=1;rounded=0;" edge="1" parent="1">
          <mxGeometry width="50" height="50" relative="1" as="geometry">
            <mxPoint x="100" y="360" as="sourcePoint" />
            <mxPoint x="80" y="320" as="targetPoint" />
          </mxGeometry>
        </mxCell>
        <mxCell id="k0mcQcMzuhZOdmnRrV_q-46" value="" style="endArrow=none;html=1;rounded=0;" edge="1" target="k0mcQcMzuhZOdmnRrV_q-47" parent="1">
          <mxGeometry relative="1" as="geometry">
            <mxPoint x="160" y="360" as="sourcePoint" />
            <mxPoint x="200" y="320" as="targetPoint" />
          </mxGeometry>
        </mxCell>
        <mxCell id="k0mcQcMzuhZOdmnRrV_q-47" value="Name" style="ellipse;whiteSpace=wrap;html=1;align=center;" vertex="1" parent="1">
          <mxGeometry x="160" y="280" width="100" height="40" as="geometry" />
        </mxCell>
        <mxCell id="k0mcQcMzuhZOdmnRrV_q-48" value="" style="endArrow=none;html=1;rounded=0;entryX=0.175;entryY=1.025;entryDx=0;entryDy=0;entryPerimeter=0;" edge="1" parent="1">
          <mxGeometry relative="1" as="geometry">
            <mxPoint x="80" y="440" as="sourcePoint" />
            <mxPoint x="101" y="401" as="targetPoint" />
          </mxGeometry>
        </mxCell>
        <mxCell id="k0mcQcMzuhZOdmnRrV_q-49" value="Name of Patients" style="ellipse;whiteSpace=wrap;html=1;align=center;" vertex="1" parent="1">
          <mxGeometry x="20" y="440" width="100" height="40" as="geometry" />
        </mxCell>
        <mxCell id="k0mcQcMzuhZOdmnRrV_q-50" value="m" style="endArrow=none;html=1;rounded=0;" edge="1" parent="1">
          <mxGeometry relative="1" as="geometry">
            <mxPoint x="129.5" y="270" as="sourcePoint" />
            <mxPoint x="130" y="360" as="targetPoint" />
          </mxGeometry>
        </mxCell>
        <mxCell id="k0mcQcMzuhZOdmnRrV_q-51" value="Doctor" style="rounded=0;whiteSpace=wrap;html=1;" vertex="1" parent="1">
          <mxGeometry x="70" y="360" width="120" height="40" as="geometry" />
        </mxCell>
        <mxCell id="k0mcQcMzuhZOdmnRrV_q-52" value="" style="endArrow=none;html=1;rounded=0;" edge="1" parent="1">
          <mxGeometry width="50" height="50" relative="1" as="geometry">
            <mxPoint x="100" y="360" as="sourcePoint" />
            <mxPoint x="80" y="320" as="targetPoint" />
          </mxGeometry>
        </mxCell>
        <mxCell id="k0mcQcMzuhZOdmnRrV_q-53" value="" style="endArrow=none;html=1;rounded=0;" edge="1" target="k0mcQcMzuhZOdmnRrV_q-54" parent="1">
          <mxGeometry relative="1" as="geometry">
            <mxPoint x="160" y="360" as="sourcePoint" />
            <mxPoint x="200" y="320" as="targetPoint" />
          </mxGeometry>
        </mxCell>
        <mxCell id="k0mcQcMzuhZOdmnRrV_q-54" value="Name" style="ellipse;whiteSpace=wrap;html=1;align=center;" vertex="1" parent="1">
          <mxGeometry x="160" y="280" width="100" height="40" as="geometry" />
        </mxCell>
        <mxCell id="k0mcQcMzuhZOdmnRrV_q-55" value="" style="endArrow=none;html=1;rounded=0;entryX=0.175;entryY=1.025;entryDx=0;entryDy=0;entryPerimeter=0;" edge="1" parent="1">
          <mxGeometry relative="1" as="geometry">
            <mxPoint x="80" y="440" as="sourcePoint" />
            <mxPoint x="101" y="401" as="targetPoint" />
          </mxGeometry>
        </mxCell>
        <mxCell id="k0mcQcMzuhZOdmnRrV_q-56" value="Address" style="ellipse;whiteSpace=wrap;html=1;align=center;" vertex="1" parent="1">
          <mxGeometry x="20" y="440" width="100" height="40" as="geometry" />
        </mxCell>
        <mxCell id="k0mcQcMzuhZOdmnRrV_q-57" value="ID" style="ellipse;whiteSpace=wrap;html=1;align=center;fontStyle=4;" vertex="1" parent="1">
          <mxGeometry x="20" y="280" width="100" height="40" as="geometry" />
        </mxCell>
        <mxCell id="k0mcQcMzuhZOdmnRrV_q-58" value="" style="endArrow=none;html=1;rounded=0;entryX=0.75;entryY=1;entryDx=0;entryDy=0;exitX=0.5;exitY=0;exitDx=0;exitDy=0;" edge="1" source="k0mcQcMzuhZOdmnRrV_q-59" target="k0mcQcMzuhZOdmnRrV_q-51" parent="1">
          <mxGeometry relative="1" as="geometry">
            <mxPoint x="190" y="450" as="sourcePoint" />
            <mxPoint x="211" y="401" as="targetPoint" />
          </mxGeometry>
        </mxCell>
        <mxCell id="k0mcQcMzuhZOdmnRrV_q-59" value="Telephone Number" style="ellipse;whiteSpace=wrap;html=1;align=center;" vertex="1" parent="1">
          <mxGeometry x="130" y="440" width="100" height="40" as="geometry" />
        </mxCell>
        <mxCell id="k0mcQcMzuhZOdmnRrV_q-60" value="Doctor" style="rounded=0;whiteSpace=wrap;html=1;" vertex="1" parent="1">
          <mxGeometry x="469" y="80" width="120" height="40" as="geometry" />
        </mxCell>
        <mxCell id="k0mcQcMzuhZOdmnRrV_q-61" value="" style="endArrow=none;html=1;rounded=0;" edge="1" parent="1">
          <mxGeometry width="50" height="50" relative="1" as="geometry">
            <mxPoint x="499" y="80" as="sourcePoint" />
            <mxPoint x="479" y="40" as="targetPoint" />
          </mxGeometry>
        </mxCell>
        <mxCell id="k0mcQcMzuhZOdmnRrV_q-62" value="" style="endArrow=none;html=1;rounded=0;" edge="1" parent="1" target="k0mcQcMzuhZOdmnRrV_q-63">
          <mxGeometry relative="1" as="geometry">
            <mxPoint x="559" y="80" as="sourcePoint" />
            <mxPoint x="599" y="40" as="targetPoint" />
          </mxGeometry>
        </mxCell>
        <mxCell id="k0mcQcMzuhZOdmnRrV_q-63" value="Name" style="ellipse;whiteSpace=wrap;html=1;align=center;" vertex="1" parent="1">
          <mxGeometry x="559" width="100" height="40" as="geometry" />
        </mxCell>
        <mxCell id="k0mcQcMzuhZOdmnRrV_q-64" value="" style="endArrow=none;html=1;rounded=0;entryX=0.175;entryY=1.025;entryDx=0;entryDy=0;entryPerimeter=0;" edge="1" parent="1">
          <mxGeometry relative="1" as="geometry">
            <mxPoint x="479" y="160" as="sourcePoint" />
            <mxPoint x="500" y="121" as="targetPoint" />
          </mxGeometry>
        </mxCell>
        <mxCell id="k0mcQcMzuhZOdmnRrV_q-65" value="Name of Patients" style="ellipse;whiteSpace=wrap;html=1;align=center;" vertex="1" parent="1">
          <mxGeometry x="419" y="160" width="100" height="40" as="geometry" />
        </mxCell>
        <mxCell id="k0mcQcMzuhZOdmnRrV_q-66" value="Doctor" style="rounded=0;whiteSpace=wrap;html=1;" vertex="1" parent="1">
          <mxGeometry x="469" y="80" width="120" height="40" as="geometry" />
        </mxCell>
        <mxCell id="k0mcQcMzuhZOdmnRrV_q-67" value="" style="endArrow=none;html=1;rounded=0;" edge="1" parent="1">
          <mxGeometry width="50" height="50" relative="1" as="geometry">
            <mxPoint x="499" y="80" as="sourcePoint" />
            <mxPoint x="479" y="40" as="targetPoint" />
          </mxGeometry>
        </mxCell>
        <mxCell id="k0mcQcMzuhZOdmnRrV_q-68" value="" style="endArrow=none;html=1;rounded=0;" edge="1" parent="1" target="k0mcQcMzuhZOdmnRrV_q-69">
          <mxGeometry relative="1" as="geometry">
            <mxPoint x="559" y="80" as="sourcePoint" />
            <mxPoint x="599" y="40" as="targetPoint" />
          </mxGeometry>
        </mxCell>
        <mxCell id="k0mcQcMzuhZOdmnRrV_q-69" value="Name" style="ellipse;whiteSpace=wrap;html=1;align=center;" vertex="1" parent="1">
          <mxGeometry x="559" width="100" height="40" as="geometry" />
        </mxCell>
        <mxCell id="k0mcQcMzuhZOdmnRrV_q-70" value="" style="endArrow=none;html=1;rounded=0;entryX=0.175;entryY=1.025;entryDx=0;entryDy=0;entryPerimeter=0;" edge="1" parent="1">
          <mxGeometry relative="1" as="geometry">
            <mxPoint x="479" y="160" as="sourcePoint" />
            <mxPoint x="500" y="121" as="targetPoint" />
          </mxGeometry>
        </mxCell>
        <mxCell id="k0mcQcMzuhZOdmnRrV_q-71" value="Address" style="ellipse;whiteSpace=wrap;html=1;align=center;" vertex="1" parent="1">
          <mxGeometry x="419" y="160" width="100" height="40" as="geometry" />
        </mxCell>
        <mxCell id="k0mcQcMzuhZOdmnRrV_q-72" value="ID" style="ellipse;whiteSpace=wrap;html=1;align=center;fontStyle=4;" vertex="1" parent="1">
          <mxGeometry x="419" width="100" height="40" as="geometry" />
        </mxCell>
        <mxCell id="k0mcQcMzuhZOdmnRrV_q-75" value="Doctor" style="rounded=0;whiteSpace=wrap;html=1;" vertex="1" parent="1">
          <mxGeometry x="469" y="80" width="120" height="40" as="geometry" />
        </mxCell>
        <mxCell id="k0mcQcMzuhZOdmnRrV_q-76" value="" style="endArrow=none;html=1;rounded=0;" edge="1" parent="1">
          <mxGeometry width="50" height="50" relative="1" as="geometry">
            <mxPoint x="499" y="80" as="sourcePoint" />
            <mxPoint x="479" y="40" as="targetPoint" />
          </mxGeometry>
        </mxCell>
        <mxCell id="k0mcQcMzuhZOdmnRrV_q-77" value="" style="endArrow=none;html=1;rounded=0;" edge="1" parent="1" target="k0mcQcMzuhZOdmnRrV_q-78">
          <mxGeometry relative="1" as="geometry">
            <mxPoint x="559" y="80" as="sourcePoint" />
            <mxPoint x="599" y="40" as="targetPoint" />
          </mxGeometry>
        </mxCell>
        <mxCell id="k0mcQcMzuhZOdmnRrV_q-78" value="Name" style="ellipse;whiteSpace=wrap;html=1;align=center;" vertex="1" parent="1">
          <mxGeometry x="559" width="100" height="40" as="geometry" />
        </mxCell>
        <mxCell id="k0mcQcMzuhZOdmnRrV_q-79" value="" style="endArrow=none;html=1;rounded=0;entryX=0.175;entryY=1.025;entryDx=0;entryDy=0;entryPerimeter=0;" edge="1" parent="1">
          <mxGeometry relative="1" as="geometry">
            <mxPoint x="479" y="160" as="sourcePoint" />
            <mxPoint x="500" y="121" as="targetPoint" />
          </mxGeometry>
        </mxCell>
        <mxCell id="k0mcQcMzuhZOdmnRrV_q-80" value="Name of Patients" style="ellipse;whiteSpace=wrap;html=1;align=center;" vertex="1" parent="1">
          <mxGeometry x="419" y="160" width="100" height="40" as="geometry" />
        </mxCell>
        <mxCell id="k0mcQcMzuhZOdmnRrV_q-81" value="Patient" style="rounded=0;whiteSpace=wrap;html=1;" vertex="1" parent="1">
          <mxGeometry x="469" y="80" width="120" height="40" as="geometry" />
        </mxCell>
        <mxCell id="k0mcQcMzuhZOdmnRrV_q-82" value="" style="endArrow=none;html=1;rounded=0;" edge="1" parent="1">
          <mxGeometry width="50" height="50" relative="1" as="geometry">
            <mxPoint x="499" y="80" as="sourcePoint" />
            <mxPoint x="479" y="40" as="targetPoint" />
          </mxGeometry>
        </mxCell>
        <mxCell id="k0mcQcMzuhZOdmnRrV_q-83" value="" style="endArrow=none;html=1;rounded=0;" edge="1" parent="1" target="k0mcQcMzuhZOdmnRrV_q-84">
          <mxGeometry relative="1" as="geometry">
            <mxPoint x="559" y="80" as="sourcePoint" />
            <mxPoint x="599" y="40" as="targetPoint" />
          </mxGeometry>
        </mxCell>
        <mxCell id="k0mcQcMzuhZOdmnRrV_q-84" value="Name" style="ellipse;whiteSpace=wrap;html=1;align=center;" vertex="1" parent="1">
          <mxGeometry x="559" width="100" height="40" as="geometry" />
        </mxCell>
        <mxCell id="k0mcQcMzuhZOdmnRrV_q-85" value="" style="endArrow=none;html=1;rounded=0;entryX=0.175;entryY=1.025;entryDx=0;entryDy=0;entryPerimeter=0;" edge="1" parent="1">
          <mxGeometry relative="1" as="geometry">
            <mxPoint x="479" y="160" as="sourcePoint" />
            <mxPoint x="500" y="121" as="targetPoint" />
          </mxGeometry>
        </mxCell>
        <mxCell id="k0mcQcMzuhZOdmnRrV_q-86" value="Date Of admission" style="ellipse;whiteSpace=wrap;html=1;align=center;" vertex="1" parent="1">
          <mxGeometry x="419" y="160" width="100" height="40" as="geometry" />
        </mxCell>
        <mxCell id="k0mcQcMzuhZOdmnRrV_q-87" value="Addmission Number" style="ellipse;whiteSpace=wrap;html=1;align=center;fontStyle=4;" vertex="1" parent="1">
          <mxGeometry x="419" width="100" height="40" as="geometry" />
        </mxCell>
        <mxCell id="k0mcQcMzuhZOdmnRrV_q-88" value="" style="endArrow=none;html=1;rounded=0;entryX=0.75;entryY=1;entryDx=0;entryDy=0;exitX=0.5;exitY=0;exitDx=0;exitDy=0;" edge="1" parent="1" source="k0mcQcMzuhZOdmnRrV_q-89" target="k0mcQcMzuhZOdmnRrV_q-81">
          <mxGeometry relative="1" as="geometry">
            <mxPoint x="589" y="170" as="sourcePoint" />
            <mxPoint x="610" y="121" as="targetPoint" />
          </mxGeometry>
        </mxCell>
        <mxCell id="k0mcQcMzuhZOdmnRrV_q-89" value="Telephone Number" style="ellipse;whiteSpace=wrap;html=1;align=center;" vertex="1" parent="1">
          <mxGeometry x="559" y="160" width="100" height="40" as="geometry" />
        </mxCell>
        <mxCell id="k0mcQcMzuhZOdmnRrV_q-120" value="" style="endArrow=none;html=1;rounded=0;entryX=0;entryY=0.5;entryDx=0;entryDy=0;exitX=1;exitY=0.25;exitDx=0;exitDy=0;" edge="1" parent="1" target="k0mcQcMzuhZOdmnRrV_q-121" source="k0mcQcMzuhZOdmnRrV_q-81">
          <mxGeometry relative="1" as="geometry">
            <mxPoint x="629" y="150" as="sourcePoint" />
            <mxPoint x="669" y="110" as="targetPoint" />
          </mxGeometry>
        </mxCell>
        <mxCell id="k0mcQcMzuhZOdmnRrV_q-121" value="Address" style="ellipse;whiteSpace=wrap;html=1;align=center;" vertex="1" parent="1">
          <mxGeometry x="640" y="40" width="100" height="40" as="geometry" />
        </mxCell>
        <mxCell id="k0mcQcMzuhZOdmnRrV_q-122" value="Treat" style="shape=rhombus;perimeter=rhombusPerimeter;whiteSpace=wrap;html=1;align=center;" vertex="1" parent="1">
          <mxGeometry x="480" y="350" width="120" height="60" as="geometry" />
        </mxCell>
        <mxCell id="k0mcQcMzuhZOdmnRrV_q-123" value="1" style="endArrow=none;html=1;rounded=0;entryX=0;entryY=0.5;entryDx=0;entryDy=0;" edge="1" parent="1" target="k0mcQcMzuhZOdmnRrV_q-122">
          <mxGeometry relative="1" as="geometry">
            <mxPoint x="190" y="380" as="sourcePoint" />
            <mxPoint x="340" y="379.5" as="targetPoint" />
          </mxGeometry>
        </mxCell>
        <mxCell id="k0mcQcMzuhZOdmnRrV_q-124" value="m" style="endArrow=none;html=1;rounded=0;exitX=0.583;exitY=1.075;exitDx=0;exitDy=0;exitPerimeter=0;" edge="1" parent="1" source="k0mcQcMzuhZOdmnRrV_q-81">
          <mxGeometry relative="1" as="geometry">
            <mxPoint x="380" y="350" as="sourcePoint" />
            <mxPoint x="540" y="350" as="targetPoint" />
          </mxGeometry>
        </mxCell>
        <mxCell id="k0mcQcMzuhZOdmnRrV_q-125" value="" style="endArrow=none;html=1;rounded=0;" edge="1" parent="1">
          <mxGeometry relative="1" as="geometry">
            <mxPoint x="589" y="99.5" as="sourcePoint" />
            <mxPoint x="700" y="390" as="targetPoint" />
            <Array as="points">
              <mxPoint x="700" y="100" />
            </Array>
          </mxGeometry>
        </mxCell>
        <mxCell id="k0mcQcMzuhZOdmnRrV_q-126" value="Treated by" style="shape=rhombus;perimeter=rhombusPerimeter;whiteSpace=wrap;html=1;align=center;" vertex="1" parent="1">
          <mxGeometry x="640" y="390" width="120" height="60" as="geometry" />
        </mxCell>
        <mxCell id="k0mcQcMzuhZOdmnRrV_q-127" value="" style="endArrow=none;html=1;rounded=0;" edge="1" parent="1" target="k0mcQcMzuhZOdmnRrV_q-128">
          <mxGeometry relative="1" as="geometry">
            <mxPoint x="700" y="550" as="sourcePoint" />
            <mxPoint x="700" y="450" as="targetPoint" />
          </mxGeometry>
        </mxCell>
        <mxCell id="k0mcQcMzuhZOdmnRrV_q-128" value="Treatment" style="whiteSpace=wrap;html=1;align=center;" vertex="1" parent="1">
          <mxGeometry x="659" y="540" width="100" height="40" as="geometry" />
        </mxCell>
        <mxCell id="k0mcQcMzuhZOdmnRrV_q-129" value="n" style="endArrow=none;html=1;rounded=0;exitX=0.43;exitY=-0.1;exitDx=0;exitDy=0;exitPerimeter=0;" edge="1" parent="1" source="k0mcQcMzuhZOdmnRrV_q-128">
          <mxGeometry relative="1" as="geometry">
            <mxPoint x="540" y="450" as="sourcePoint" />
            <mxPoint x="700" y="450" as="targetPoint" />
          </mxGeometry>
        </mxCell>
        <mxCell id="k0mcQcMzuhZOdmnRrV_q-130" value="" style="endArrow=none;html=1;rounded=0;entryX=0.175;entryY=1.025;entryDx=0;entryDy=0;entryPerimeter=0;" edge="1" parent="1">
          <mxGeometry relative="1" as="geometry">
            <mxPoint x="655" y="620" as="sourcePoint" />
            <mxPoint x="676" y="581" as="targetPoint" />
          </mxGeometry>
        </mxCell>
        <mxCell id="k0mcQcMzuhZOdmnRrV_q-131" value="Number" style="ellipse;whiteSpace=wrap;html=1;align=center;" vertex="1" parent="1">
          <mxGeometry x="595" y="620" width="100" height="40" as="geometry" />
        </mxCell>
        <mxCell id="k0mcQcMzuhZOdmnRrV_q-132" value="" style="endArrow=none;html=1;rounded=0;entryX=0.75;entryY=1;entryDx=0;entryDy=0;exitX=0.5;exitY=0;exitDx=0;exitDy=0;" edge="1" parent="1" source="k0mcQcMzuhZOdmnRrV_q-133">
          <mxGeometry relative="1" as="geometry">
            <mxPoint x="765" y="630" as="sourcePoint" />
            <mxPoint x="735" y="580" as="targetPoint" />
          </mxGeometry>
        </mxCell>
        <mxCell id="k0mcQcMzuhZOdmnRrV_q-133" value="Description" style="ellipse;whiteSpace=wrap;html=1;align=center;" vertex="1" parent="1">
          <mxGeometry x="705" y="620" width="100" height="40" as="geometry" />
        </mxCell>
      </root>
    </mxGraphModel>
  </diagram>
</mxfile>
